/vscmnt/brussel_pixiu_data/_data_brussel/112/vsc11236/PredSimResults/SUBJ09mtu3D/worker1.mot
version=1
nRows=7
nColumns=50
inDegrees=yes
endheader
                time	         pelvis_tilt	         pelvis_list	     pelvis_rotation	           pelvis_tx	           pelvis_ty	           pelvis_tz	       hip_flexion_r	     hip_adduction_r	      hip_rotation_r	        knee_angle_r	       ankle_angle_r	         mtp_angle_r	       hip_flexion_l	     hip_adduction_l	      hip_rotation_l	        knee_angle_l	       ankle_angle_l	         mtp_angle_l	    lumbar_extension	      lumbar_bending	     lumbar_rotation	 ercspn_r/activation	 intobl_r/activation	 extobl_r/activation	    abd_r/activation	    add_r/activation	hamstrings_r/activation	bifemsh_r/activation	glut_max_r/activation	iliopsoas_r/activation	rect_fem_r/activation	  vasti_r/activation	gastroc_r/activation	 soleus_r/activation	tib_ant_r/activation	 ercspn_l/activation	 intobl_l/activation	 extobl_l/activation	    abd_l/activation	    add_l/activation	hamstrings_l/activation	bifemsh_l/activation	glut_max_l/activation	iliopsoas_l/activation	rect_fem_l/activation	  vasti_l/activation	gastroc_l/activation	 soleus_l/activation	tib_ant_l/activation	
          0.00000000	         -5.35050186	         -1.50173708	          5.94629827	          0.00000000	          0.99012651	          0.00140710	         26.28254392	         -0.07391895	          1.03968536	          1.31418101	          0.80327702	          0.24485379	        -11.93465870	         -2.38534549	          4.94123338	         -7.99311208	          8.65280275	         29.30391435	        -13.57488677	         -1.38510280	         -2.24554975	          0.01000005	          0.22846631	          0.10487060	          0.05196397	          0.09362268	          0.05641670	          0.36926952	          0.02148959	          0.04591519	          0.02049867	          0.01000014	          0.01000008	          0.01000000	          0.34658368	          0.01000001	          0.01000001	          0.01000005	          0.03308766	          0.01000000	          0.02815653	          0.17121235	          0.02219759	          0.01000009	          0.01000004	          0.01000009	          0.38234720	          0.19434829	          0.00999999	
          0.01170537	         -5.33698422	         -1.59982759	          6.06312270	          0.01834396	          0.98816460	          0.00156149	         25.85252359	          0.11487556	          0.66323243	          0.38158471	          0.25819342	          0.25605183	        -12.65774092	         -2.58490046	          4.69839190	         -8.60795039	          7.88396732	         30.91800359	        -13.17939657	         -0.95681606	         -2.23301068	          0.01000006	          0.19117088	          0.08775125	          0.04401610	          0.08411586	          0.04796528	          0.31485755	          0.05349128	          0.03841988	          0.01715245	          0.01000021	          0.01968777	          0.01427898	          0.36237652	          0.01000005	          0.01000004	          0.06127713	          0.02768634	          0.01000003	          0.04013450	          0.14326325	          0.02396915	          0.01000021	          0.01000005	          0.01000012	          0.35694036	          0.17314411	          0.01000000	
          0.02341074	         -5.31458000	         -1.69871077	          6.14605754	          0.03687352	          0.98643367	          0.00176069	         25.40113411	          0.31288237	          0.31613387	         -0.71471744	         -0.35442415	          0.23874754	        -13.21223210	         -2.76754040	          4.41887986	         -9.55544525	          7.02906177	         32.54632491	        -12.77551576	         -0.51901778	         -2.22080031	          0.01000003	          0.15996366	          0.07342651	          0.09232929	          0.07710757	          0.05733251	          0.27017834	          0.08699769	          0.03214812	          0.01435248	          0.01000004	          0.01647389	          0.01194804	          0.45005288	          0.01000002	          0.01000025	          0.06101864	          0.02316676	          0.01000004	          0.04430780	          0.11987661	          0.02039859	          0.01000004	          0.01000003	          0.01000031	          0.33005005	          0.14487962	          0.00999999	
          0.03511611	         -5.28957569	         -1.80526099	          6.19563539	          0.05528800	          0.98520530	          0.00200045	         24.94207452	          0.52575537	          0.03321647	         -1.74106674	         -1.11992976	          0.20318540	        -13.47969461	         -2.93215223	          4.11208721	        -10.99143093	          6.05653379	         34.16407051	        -12.39426104	         -0.06490045	         -2.20610900	          0.01000004	          0.13385078	          0.06144018	          0.14122993	          0.09071915	          0.05710142	          0.22607376	          0.11928873	          0.02690018	          0.01200959	          0.01000007	          0.01378466	          0.01000000	          0.50313674	          0.01000037	          0.01000005	          0.05105783	          0.01938496	          0.02255017	          0.04161079	          0.10030766	          0.01706868	          0.01000009	          0.01000003	          0.01000027	          0.28094673	          0.12122910	          0.01000000	
          0.04682148	         -5.26483950	         -1.91449190	          6.21193960	          0.07333219	          0.98468779	          0.00225674	         24.53672180	          0.75200352	         -0.16883635	         -2.86668088	         -1.64271693	          0.16219157	        -13.35475196	         -3.06617888	          3.78425396	        -13.06206526	          4.94946095	         35.68646101	        -12.06288873	          0.40250810	         -2.18340652	          0.01000006	          0.11200064	          0.05141053	          0.18897380	          0.11482030	          0.05985419	          0.18916891	          0.15444962	          0.02250893	          0.01004921	          0.01000009	          0.01153443	          0.01000001	          0.51642154	          0.04126708	          0.01000010	          0.04272304	          0.01622051	          0.04883382	          0.03481817	          0.08393321	          0.01428235	          0.01000008	          0.01000002	          0.01000005	          0.23508426	          0.10143935	          0.01000000	
          0.05852685	         -5.24278774	         -2.01730171	          6.19381444	          0.09080441	          0.98504397	          0.00249601	         24.18660827	          0.98069926	         -0.28850931	         -4.07787740	         -1.87867584	          0.12289294	        -12.75402993	         -3.15639443	          3.44053637	        -15.87806122	          3.71211116	         36.89311610	        -11.80110845	          0.87570391	         -2.14740732	          0.01000006	          0.09371736	          0.04301814	          0.22052192	          0.14573305	          0.05746074	          0.15828850	          0.17916975	          0.01883451	          0.01000033	          0.01000026	          0.01000005	          0.01000003	          0.48825289	          0.07145688	          0.01000003	          0.03574885	          0.01357263	          0.08106540	          0.02913437	          0.07023179	          0.01195087	          0.01000018	          0.01000001	          0.01000001	          0.19670850	          0.08488013	          0.01000002	
          0.07023222	         -5.22353813	         -2.10080822	          6.13735390	          0.10761056	          0.98631729	          0.00268774	         23.86162674	          1.19587038	         -0.34581410	         -5.30931839	         -1.83596688	          0.09329823	        -11.63861635	         -3.19234806	          3.08524356	        -19.49653442	          2.43280388	         37.33534404	        -11.61710994	          1.34197798	         -2.09155432	          0.01000015	          0.07841870	          0.03599575	          0.23140874	          0.17841910	          0.05562941	          0.13244909	          0.17935646	          0.01575992	          0.01000055	          0.01000455	          0.01000007	          0.01000007	          0.43698941	          0.08389722	          0.01000002	          0.02991315	          0.01135700	          0.11010247	          0.02437840	          0.05876709	          0.01000000	          0.01000044	          0.01000001	          0.01000000	          0.16459730	          0.07102408	          0.01000000	
